<!--?xml version="1.0" standalone="no"?-->

<svg version="1.0" xmlns="http://www.w3.org/2000/svg" width="286.000000pt" height="300.000000pt" viewBox="0 0 286.000000 300.000000" preserveAspectRatio="xMidYMid meet">
<g transform="translate(0.000000,300.000000) scale(0.100000,-0.100000)" fill="#090909" stroke="none">

</g>
<g transform="translate(0.000000,300.000000) scale(0.100000,-0.100000)" fill="#43ACCE" stroke="none">
<path class="node" id="node2" d="M707 2969 c-152 -17 -340 -117 -434 -231 -94 -115 -144 -272 -158
-496 l-7 -113 29 7 c15 4 33 10 38 14 15 12 122 30 174 30 24 0 72 11 105 24
122 48 274 42 393 -16 l63 -30 38 24 c76 51 166 72 298 73 71 0 131 -5 145
-12 82 -39 142 -56 158 -45 73 52 91 57 238 56 l143 0 -17 26 c-9 14 -31 47
-49 74 -18 27 -31 53 -27 58 8 14 47 -27 102 -107 27 -39 79 -101 115 -138 36
-37 66 -74 66 -82 0 -22 11 -19 48 13 31 26 32 28 20 62 -7 19 -38 78 -69 131
-84 142 -144 248 -185 329 -124 240 -341 335 -719 316 -79 -4 -150 -3 -180 4
-149 31 -238 39 -328 29z"></path>
<path class="node" id="node3" d="M2710 2253 c-177 -8 -406 -43 -478 -73 -23 -10 -22 -11 30 -74 239
-288 392 -465 398 -461 4 3 18 31 30 62 12 32 26 67 31 78 4 11 16 47 24 80 9
33 27 101 41 150 13 50 29 116 36 147 17 84 2 96 -112 91z"></path>
<path class="node" id="node4" d="M1170 2234 c-99 -20 -222 -72 -238 -100 -8 -14 -19 -11 -94 25 -69
35 -98 43 -160 48 -85 6 -182 -9 -238 -37 -22 -11 -69 -19 -130 -23 -124 -7
-197 -39 -242 -104 -27 -40 -50 -158 -42 -214 2 -13 6 -45 9 -70 4 -33 16 -58
41 -88 33 -38 39 -41 88 -41 29 0 56 3 59 6 4 4 31 17 61 29 46 19 109 57 181
109 9 7 24 -1 48 -25 25 -24 59 -42 109 -58 63 -20 90 -22 198 -19 216 7 362
49 433 127 21 23 47 41 59 41 11 0 58 -18 104 -40 79 -38 251 -90 298 -90 22
0 213 155 231 188 6 11 43 48 83 82 39 35 72 67 72 72 0 21 -51 95 -80 116
-65 49 -115 62 -230 62 -113 0 -202 -21 -230 -55 -15 -19 -37 -19 -72 -1 -14
8 -43 19 -65 26 -21 7 -43 16 -49 21 -13 10 -168 20 -204 13z"></path>
<path class="node" id="node5" d="M2105 2010 c-66 -55 -121 -104 -123 -109 -2 -6 45 -68 104 -138 60
-70 141 -168 182 -216 l74 -88 27 23 c14 13 28 25 31 28 3 3 47 41 98 84 82
69 91 80 80 95 -8 9 -39 45 -69 81 -59 68 -257 305 -274 327 -8 10 -39 -11
-130 -87z"></path>
<path class="node" id="node6" d="M1913 1828 c-21 -18 -51 -45 -68 -59 -72 -64 -475 -408 -520 -444
-27 -22 -87 -74 -134 -116 -47 -41 -125 -108 -173 -148 -49 -39 -88 -73 -88
-74 0 -2 37 -40 82 -86 l82 -83 30 38 c65 83 181 181 261 221 90 45 185 67
295 67 58 0 129 -6 157 -13 l52 -13 74 64 c41 34 131 112 200 171 70 60 127
112 127 117 0 7 -71 95 -149 186 -14 17 -59 70 -100 117 -40 48 -77 87 -82 87
-4 0 -25 -15 -46 -32z"></path>
<path class="node" id="node7" d="M1267 1775 c-28 -35 -97 -76 -149 -89 -27 -6 -28 -9 -27 -64 1 -82
10 -107 39 -110 108 -11 110 -12 110 -41 0 -16 -11 -44 -24 -64 l-25 -36 30
-26 c48 -40 37 -46 224 120 19 16 26 28 18 31 -61 26 -92 92 -69 147 20 49 59
72 120 71 42 0 53 -5 78 -32 15 -18 28 -39 28 -47 0 -23 13 -18 50 20 l34 35
-30 0 c-54 0 -233 60 -300 101 -47 28 -75 24 -107 -16z"></path>
<path class="node" id="node8" d="M405 1700 c-38 -27 -86 -54 -107 -61 -34 -11 -38 -16 -38 -47 0 -132
105 -269 252 -329 88 -36 235 -38 322 -5 55 21 139 72 151 91 3 5 -6 26 -20
47 -26 38 -33 88 -14 99 6 4 37 9 69 12 l58 6 -6 36 c-4 20 -7 55 -7 79 l0 44
-35 -6 c-19 -4 -80 -12 -136 -18 l-100 -11 0 -48 c1 -42 -4 -53 -32 -81 -29
-29 -39 -33 -88 -33 -50 0 -58 3 -85 33 -22 25 -29 42 -29 75 0 24 7 52 15 63
19 25 19 34 -1 34 -13 0 -80 43 -94 61 -3 4 -36 -15 -75 -41z"></path>

<path class="node" id="node10" d="M170 1540 c0 -38 11 -104 26 -160 48 -177 54 -205 54 -246 0 -50 5
-55 38 -43 41 16 172 39 218 39 110 0 255 -44 357 -107 45 -28 25 -39 187 102
63 55 133 115 155 133 l40 33 -35 29 -35 29 -39 -40 c-22 -21 -42 -39 -46 -39
-3 0 -21 16 -40 35 l-33 34 -41 -35 c-204 -175 -557 -138 -709 74 -37 52 -77
143 -77 176 0 11 -5 28 -10 36 -7 11 -10 -4 -10 -50z"></path>
<path class="node" id="node11" d="M970 1456 c0 -30 72 -123 107 -139 28 -12 33 -8 104 87 53 71 47 76
-91 76 l-120 0 0 -24z"></path>

<path class="node" id="node13" d="M1530 1099 c-146 -39 -275 -125 -371 -245 l-52 -65 23 -40 c12 -22
20 -49 17 -59 -6 -22 1 -25 96 -40 122 -19 303 26 412 102 104 73 233 227 250
300 6 24 3 27 -47 43 -84 27 -238 29 -328 4z"></path>
<path class="node" id="node14" d="M391 1089 c-83 -13 -134 -36 -126 -58 16 -42 75 -128 125 -180 136
-141 296 -211 480 -211 51 0 107 4 124 10 17 5 51 16 76 23 25 8 46 20 48 28
4 21 -83 147 -137 197 -94 89 -219 161 -312 181 -75 16 -206 21 -278 10z"></path>
<path class="node" id="node15" d="M1882 946 c-57 -91 -166 -191 -282 -257 -46 -27 -191 -69 -236 -69
-17 0 -58 -29 -133 -92 -162 -141 -363 -310 -394 -334 -15 -12 -27 -23 -27
-25 0 -2 195 -4 433 -3 408 0 437 2 514 22 45 11 100 30 121 41 115 59 146
194 102 436 -12 61 -25 121 -30 135 -6 14 -16 64 -23 112 l-12 86 -33 -52z"></path>
<path class="node" id="node16" d="M255 913 c-4 -32 -14 -96 -22 -143 -9 -47 -18 -138 -20 -203 -4 -108
-3 -122 22 -186 14 -38 34 -76 44 -85 17 -16 19 -13 35 46 9 35 24 93 33 129
16 66 17 68 104 140 48 41 88 77 88 80 1 4 -18 19 -41 34 -62 41 -144 121
-194 188 l-43 57 -6 -57z"></path>
<path class="node" id="node17" d="M493 613 c-43 -35 -79 -69 -81 -77 -2 -7 70 -99 158 -205 l161 -191
28 22 c46 38 276 232 281 238 3 3 48 41 100 85 52 44 108 92 125 107 l30 28
-30 0 c-16 0 -61 7 -98 16 -65 16 -71 16 -130 -2 -47 -15 -90 -19 -182 -18
-106 1 -129 5 -202 31 l-82 29 -78 -63z"></path>
<path class="node" id="node18" d="M380 486 c0 -8 -11 -50 -24 -93 -47 -148 -47 -143 25 -218 l64 -66
55 5 c30 3 86 9 123 12 37 4 67 10 65 14 -2 5 -59 77 -128 160 -173 210 -180
217 -180 186z"></path>
<path class="node" id="node19" d="M291 184 c-26 -99 -30 -89 44 -86 36 2 65 7 65 10 -1 4 -23 31 -50
61 l-48 55 -11 -40z"></path>
<path class="node" id="node20" d="M758 124 c-8 -9 -37 -18 -64 -21 -60 -6 -74 -17 -51 -40 14 -14 20
-15 41 -4 22 12 28 11 52 -8 36 -29 109 -29 140 0 18 17 25 19 42 8 39 -24 70
8 53 54 -10 27 -12 27 -104 27 -71 0 -96 -4 -109 -16z"></path>
<path class="node" id="node21" d="M1197 133 c-4 -3 -7 -23 -7 -44 0 -44 23 -58 52 -32 19 17 21 17 32
1 30 -41 110 -44 153 -5 20 18 26 19 48 7 22 -12 28 -12 42 2 14 14 14 21 3
47 l-12 31 -153 0 c-83 0 -155 -3 -158 -7z"></path>
</g>
</svg>