<?xml version="1.0" encoding="utf-8"?>
<!-- Generator: Adobe Illustrator 20.1.0, SVG Export Plug-In . SVG Version: 6.00 Build 0)  -->
<svg version="1.1" id="Layer_1" xmlns="http://www.w3.org/2000/svg" xmlns:xlink="http://www.w3.org/1999/xlink" x="0px" y="0px"
	 viewBox="0 0 158.7 67.3" style="enable-background:new 0 0 158.7 67.3;" xml:space="preserve">
<style type="text/css">
	.st0{fill:#0F7ABC;}
	.st1{fill:url(#SVGID_1_);}
	.st2{fill:url(#SVGID_2_);}
	.st3{fill:#379FD8;}
</style>
<g>
	<g>
		<path fill="#0F7ABC" class="st0" d="M70.1,52.3h0.5c0.2,0,0.3,0.1,0.3,0.3v14.1c0,0.2-0.1,0.3-0.3,0.3h-0.5c-0.2,0-0.3-0.1-0.3-0.3V52.6
			C69.8,52.4,69.9,52.3,70.1,52.3z"/>
		<path fill="#0F7ABC" class="st0" d="M83.8,52.3h0.5c0.2,0,0.3,0.1,0.3,0.3v14.1c0,0.2-0.1,0.3-0.3,0.3h-0.4c-0.2,0-0.3-0.1-0.4-0.2l-7.4-12.3
			v12.2c0,0.2-0.1,0.3-0.3,0.3h-0.5c-0.2,0-0.3-0.1-0.3-0.3V52.6c0-0.2,0.1-0.3,0.3-0.3h0.4c0.2,0,0.3,0.1,0.4,0.2l7.4,12.3V52.6
			C83.5,52.4,83.6,52.3,83.8,52.3z"/>
		<path fill="#0F7ABC" class="st0" d="M93,67.3c-2.7,0-4.9-1.4-5.1-4c0-0.2,0.1-0.3,0.3-0.3h0.5c0.2,0,0.3,0.1,0.3,0.3c0.2,1.8,1.7,2.9,4,2.9
			c2,0,3.5-1.1,3.5-2.8c0-1.8-1.7-2.5-3.6-3.2c-2.2-0.8-4.6-1.6-4.6-4.3c0-2.3,2-3.8,4.4-3.8c2.3,0,4.3,1.4,4.5,3.7
			c0,0.2-0.1,0.3-0.3,0.3h-0.5c-0.2,0-0.3-0.1-0.3-0.3c-0.1-1.6-1.5-2.6-3.4-2.6c-1.9,0-3.3,1.1-3.3,2.7c0,1.9,1.7,2.5,3.6,3.2
			c2.2,0.9,4.6,1.6,4.6,4.3C97.6,65.8,95.5,67.3,93,67.3L93,67.3z"/>
		<path fill="#0F7ABC" class="st0" d="M101.2,52.3h0.5c0.2,0,0.3,0.1,0.3,0.3v14.1c0,0.2-0.1,0.3-0.3,0.3h-0.5c-0.2,0-0.3-0.1-0.3-0.3V52.6
			C100.9,52.4,101,52.3,101.2,52.3z"/>
		<path fill="#0F7ABC" class="st0" d="M119.4,59.8c0.2,0,0.3,0.1,0.3,0.3v0.7v5.9c0,0.2-0.1,0.3-0.3,0.3h-0.5c-0.2,0-0.3-0.1-0.3-0.3v-2.3
			c-1.1,1.9-3.3,2.8-5.6,2.8c-4.5,0-7.7-3.4-7.7-7.6s3.2-7.6,7.6-7.6c3,0,5.7,1.8,6.7,4.4c0.1,0.2,0,0.4-0.3,0.4h-0.6
			c-0.2,0-0.3-0.1-0.4-0.2c-0.9-2-3-3.4-5.5-3.4c-3.8,0-6.5,2.9-6.5,6.5s2.6,6.5,6.5,6.5c2.9,0,5.5-1.6,5.6-4.5v-0.8h-5.1
			c-0.2,0-0.3-0.1-0.3-0.3v-0.4c0-0.2,0.1-0.3,0.3-0.3L119.4,59.8L119.4,59.8z"/>
		<path fill="#0F7ABC" class="st0" d="M133.2,52.6v14.1c0,0.2-0.1,0.3-0.3,0.3h-0.5c-0.2,0-0.3-0.1-0.3-0.3V60h-7.4v6.7c0,0.2-0.1,0.3-0.3,0.3h-0.5
			c-0.2,0-0.3-0.1-0.3-0.3V52.6c0-0.2,0.1-0.3,0.3-0.3h0.5c0.2,0,0.3,0.1,0.3,0.3v6.3h7.4v-6.3c0-0.2,0.1-0.3,0.3-0.3h0.5
			C133.1,52.3,133.2,52.4,133.2,52.6z"/>
		<path fill="#0F7ABC" class="st0" d="M145.6,52.6v0.4c0,0.2-0.1,0.3-0.3,0.3h-3.9v13.3c0,0.2-0.1,0.3-0.3,0.3h-0.5c-0.2,0-0.3-0.1-0.3-0.3V53.4
			h-3.9c-0.2,0-0.3-0.1-0.3-0.3v-0.4c0-0.2,0.1-0.3,0.3-0.3h5h3.9C145.5,52.3,145.6,52.4,145.6,52.6z"/>
		<path fill="#0F7ABC" class="st0" d="M152.3,67.3c-2.7,0-4.9-1.4-5.1-4c0-0.2,0.1-0.3,0.3-0.3h0.5c0.2,0,0.3,0.1,0.3,0.3c0.2,1.8,1.7,2.9,4,2.9
			c2,0,3.5-1.1,3.5-2.8c0-1.8-1.7-2.5-3.6-3.2c-2.2-0.8-4.6-1.6-4.6-4.3c0-2.3,2-3.8,4.4-3.8c2.3,0,4.3,1.4,4.5,3.7
			c0,0.2-0.1,0.3-0.3,0.3h-0.5c-0.2,0-0.3-0.1-0.3-0.3c-0.1-1.6-1.5-2.6-3.4-2.6c-1.9,0-3.3,1.1-3.3,2.7c0,1.9,1.7,2.5,3.6,3.2
			c2.2,0.9,4.6,1.6,4.6,4.3C156.9,65.8,154.8,67.3,152.3,67.3L152.3,67.3z"/>
	</g>
</g>
<g>
	<linearGradient id="SVGID_1_" gradientUnits="userSpaceOnUse" x1="98.5642" y1="46.7409" x2="102.8892" y2="-2.694">
		<stop  offset="0" style="stop-color:#227DC1"/>
		<stop  offset="1" style="stop-color:#45A3DB"/>
	</linearGradient>
	<path fill="url(#SVGID_1_)" class="st1" d="M152,1.6c-2.4,0-4.3,1.9-4.3,4.3V16c-2.2-1.3-4.7-2-7.4-2c-6,0-11.1,3.6-13.3,8.7c-2.3-5.1-7.4-8.8-13.4-8.8
		c-6,0-11.1,3.6-13.4,8.7C98,17.6,92.8,14,86.8,14c-5.9,0-11,3.5-13.3,8.5V5.9c0-2.4-1.9-4.3-4.3-4.3c-2.4,0-4.3,1.9-4.3,4.3V16
		c-2.2-1.3-4.7-2-7.4-2c-8,0-14.6,6.5-14.6,14.6c0,8,6.5,14.6,14.6,14.6c2.8,0,5.3-0.8,7.5-2.1c0.3,1.1,1.3,2.1,2.4,2.1H71
		c1.4,0,2.6-1.1,2.6-2.6v-5.9c2.3,5,7.4,8.5,13.3,8.5c6,0,11.1-3.6,13.4-8.7c2.3,5.1,7.4,8.7,13.4,8.7c6,0,11.1-3.6,13.4-8.8
		c2.2,5.1,7.4,8.7,13.3,8.7c2.8,0,5.3-0.8,7.5-2.1c0.3,1.1,1.3,2.1,2.4,2.1h3.4c1.4,0,2.6-1.1,2.6-2.6V5.9
		C156.2,3.5,154.3,1.6,152,1.6z M57.7,35.7c-3.9,0-7.1-3.2-7.1-7.1c0-3.9,3.2-7.1,7.1-7.1s7.1,3.2,7.1,7.1
		C64.8,32.5,61.6,35.7,57.7,35.7z M86.8,35.7c-3.9,0-7.1-3.2-7.1-7.1c0-3.9,3.2-7.1,7.1-7.1c3.9,0,7.1,3.2,7.1,7.1
		C94,32.5,90.8,35.7,86.8,35.7z M113.6,35.7c-3.9,0-7.1-3.2-7.1-7.1c0-3.9,3.2-7.1,7.1-7.1c3.9,0,7.1,3.2,7.1,7.1
		C120.7,32.5,117.5,35.7,113.6,35.7z M140.3,35.7c-3.9,0-7.1-3.2-7.1-7.1c0-3.9,3.2-7.1,7.1-7.1s7.1,3.2,7.1,7.1
		C147.4,32.5,144.2,35.7,140.3,35.7z"/>
	<g>
		<linearGradient id="SVGID_2_" gradientUnits="userSpaceOnUse" x1="16.233" y1="43.073" x2="19.6423" y2="4.1043">
			<stop  offset="0" style="stop-color:#227DC1"/>
			<stop  offset="1" style="stop-color:#45A3DB"/>
		</linearGradient>
		<path fill="url(#SVGID_2_)" class="st2" d="M6.9,39c6.7,6.4,17.5,5.2,23.3-2.2c1.6-2,2.7-4.2,3.1-6.5c1.1-5.3-2-10.4-7-12.5c-7.5-3.1-6.2-8.3-4.7-11.2
			c0.6-1.2-0.4-2.6-1.7-2.4c-2.1,0.3-5.2,1.5-9.3,5.2C-3.6,22.5,2.6,34.9,6.9,39z"/>
		<ellipse transform="matrix(0.7071 -0.7071 0.7071 0.7071 0.2255 22.7025)" fill="#379FD8" class="st3" cx="27.5" cy="11.1" rx="2.9" ry="2.9"/>
		<ellipse transform="matrix(0.7071 -0.7071 0.7071 0.7071 5.4293 20.5471)" fill="#379FD8" class="st3" cx="27.5" cy="3.7" rx="1.9" ry="1.9"/>
	</g>
</g>
</svg>
